# xmcd
#
# Track frame offsets: 
#        150
#        16953
#        34152
#        51461
#        71258
#        88719
#        100957
#        120535
#        135205
#        151412
#        167965
#        188088
#
# Disc length: 2527 seconds
#
# Revision: 1
# Processed by: cddbd v1.5.2PL0 Copyright (c) Steve Scherf et al.
# Submitted via: ExactAudioCopy v0.99pb5
#
DISCID=9809dd0c
DTITLE=Mindy Smith - My Holiday
DYEAR=2007
DGENRE=Holiday
TTITLE0=My Holiday
TTITLE1=The Christmas Song
TTITLE2=Santa Will Find You
TTITLE3=Follow The Shepherd Home
TTITLE4=What Are You Doing New Year's Eve?
TTITLE5=Away In A Manger
TTITLE6=I Know The Reason
TTITLE7=Silver Bells
TTITLE8=I'll Be Home For Christmas
TTITLE9=It Really Is (A Wonderful Life)
TTITLE10=Come Around
TTITLE11=End
EXTD=
EXTT0=
EXTT1=
EXTT2=
EXTT3=
EXTT4=
EXTT5=
EXTT6=
EXTT7=
EXTT8=
EXTT9=
EXTT10=
EXTT11=
PLAYORDER=
